# This file uses centimeters as units for non-parametric coordinates.

mtllib AdvCube.mtl
g default
v -0.500000 -0.500000 0.500000
v 0.500000 -0.500000 0.500000
v -0.500000 0.500000 0.500000
v 0.500000 0.500000 0.500000
v -0.500000 0.500000 -0.500000
v 0.500000 0.500000 -0.500000
v -0.500000 -0.500000 -0.500000
v 0.500000 -0.500000 -0.500000
v 2.235849 -0.259714 -0.259714
v 2.235849 -0.259714 0.259714
v 2.235849 0.259714 0.259714
v 2.235849 0.259714 -0.259714
v -2.235849 -0.259714 -0.259714
v -2.235849 -0.259714 0.259714
v -2.235849 0.259714 -0.259714
v -2.235849 0.259714 0.259714
vt 0.375000 0.000000
vt 0.625000 0.000000
vt 0.375000 0.250000
vt 0.625000 0.250000
vt 0.375000 0.500000
vt 0.625000 0.500000
vt 0.375000 0.750000
vt 0.625000 0.750000
vt 0.375000 1.000000
vt 0.625000 1.000000
vt 0.875000 0.000000
vt 0.875000 0.250000
vt 0.125000 0.000000
vt 0.125000 0.250000
vt 0.625000 0.000000
vt 0.875000 0.000000
vt 0.625000 0.250000
vt 0.875000 0.250000
vt 0.125000 0.000000
vt 0.375000 0.000000
vt 0.125000 0.250000
vt 0.375000 0.250000
vn 0.000000 0.000000 1.000000
vn 0.000000 0.000000 1.000000
vn 0.000000 0.000000 1.000000
vn 0.000000 0.000000 1.000000
vn 0.000000 1.000000 0.000000
vn 0.000000 1.000000 0.000000
vn 0.000000 1.000000 0.000000
vn 0.000000 1.000000 0.000000
vn 0.000000 0.000000 -1.000000
vn 0.000000 0.000000 -1.000000
vn 0.000000 0.000000 -1.000000
vn 0.000000 0.000000 -1.000000
vn 0.000000 -1.000000 0.000000
vn 0.000000 -1.000000 0.000000
vn 0.000000 -1.000000 0.000000
vn 0.000000 -1.000000 0.000000
vn 1.000000 0.000000 0.000000
vn 1.000000 0.000000 0.000000
vn 1.000000 0.000000 0.000000
vn 1.000000 0.000000 0.000000
vn -1.000000 0.000000 0.000000
vn -1.000000 0.000000 0.000000
vn -1.000000 0.000000 0.000000
vn -1.000000 0.000000 0.000000
vn 0.137118 -0.990555 0.000000
vn 0.137118 -0.990555 0.000000
vn 0.137118 -0.990555 0.000000
vn 0.137118 -0.990555 0.000000
vn 0.137118 0.000000 0.990555
vn 0.137118 0.000000 0.990555
vn 0.137118 0.000000 0.990555
vn 0.137118 0.000000 0.990555
vn 0.137118 0.000000 -0.990555
vn 0.137118 0.000000 -0.990555
vn 0.137118 0.000000 -0.990555
vn 0.137118 0.000000 -0.990555
vn 0.137118 0.990555 0.000000
vn 0.137118 0.990555 0.000000
vn 0.137118 0.990555 0.000000
vn 0.137118 0.990555 0.000000
vn -0.137118 -0.990555 0.000000
vn -0.137118 -0.990555 0.000000
vn -0.137118 -0.990555 0.000000
vn -0.137118 -0.990555 0.000000
vn -0.137118 0.000000 -0.990555
vn -0.137118 0.000000 -0.990555
vn -0.137118 0.000000 -0.990555
vn -0.137118 0.000000 -0.990555
vn -0.137118 0.000000 0.990555
vn -0.137118 0.000000 0.990555
vn -0.137118 0.000000 0.990555
vn -0.137118 0.000000 0.990555
vn -0.137118 0.990555 0.000000
vn -0.137118 0.990555 0.000000
vn -0.137118 0.990555 0.000000
vn -0.137118 0.990555 0.000000
s 1
g pCube1
usemtl initialShadingGroup
f 1/1/1 2/2/2 3/3/3
f 3/3/3 2/2/2 4/4/4
s 2
f 3/3/5 4/4/6 5/5/7
f 5/5/7 4/4/6 6/6/8
s 3
f 5/5/9 6/6/10 7/7/11
f 7/7/11 6/6/10 8/8/12
s 4
f 7/7/13 8/8/14 1/9/15
f 1/9/15 8/8/14 2/10/16
s 5
f 10/15/17 9/16/18 11/17/19
f 11/17/19 9/16/18 12/18/20
s 6
f 13/19/21 14/20/22 15/21/23
f 15/21/23 14/20/22 16/22/24
s 7
f 2/2/25 8/11/26 10/15/27
f 10/15/27 8/11/26 9/16/28
s 8
f 4/4/29 2/2/30 11/17/31
f 11/17/31 2/2/30 10/15/32
s 9
f 8/11/33 6/12/34 9/16/35
f 9/16/35 6/12/34 12/18/36
s 10
f 6/12/37 4/4/38 12/18/39
f 12/18/39 4/4/38 11/17/40
s 11
f 7/13/41 1/1/42 13/19/43
f 13/19/43 1/1/42 14/20/44
s 12
f 5/14/45 7/13/46 15/21/47
f 15/21/47 7/13/46 13/19/48
s 13
f 1/1/49 3/3/50 14/20/51
f 14/20/51 3/3/50 16/22/52
s 14
f 3/3/53 5/14/54 16/22/55
f 16/22/55 5/14/54 15/21/56
